<?xml version="1.0" standalone="no"?>
<svg viewBox="0 0 200 200" xmlns="http://www.w3.org/2000/svg">
  <path fill="#E11D48" d="M40.4,-64.4C51.1,-56,57.6,-42.6,61,-29.5C64.5,-16.4,64.9,-3.5,66.7,12.2C68.5,27.9,71.7,46.4,64.5,57.4C57.3,68.3,39.7,71.7,23.6,73.2C7.5,74.7,-7.1,74.3,-22.6,72C-38.1,69.7,-54.4,65.5,-63.9,55.1C-73.4,44.7,-76,28,-75.9,12.4C-75.8,-3.2,-73.1,-17.7,-68.5,-32.8C-63.9,-47.9,-57.5,-63.6,-45.7,-71.5C-34,-79.5,-17,-79.6,-1.1,-78C14.9,-76.3,29.7,-72.8,40.4,-64.4Z" transform="translate(100 100)" />
</svg>
